<svg width="24" height="24" viewBox="0 0 24 24" fill="none" xmlns="http://www.w3.org/2000/svg">
  <path d="M4.68015 14.1433L5.41033 13.972L4.68015 14.1433ZM4.68015 8.50289L5.41033 8.67416L4.68015 8.50289ZM20.6737 8.50289L19.9435 8.67417L20.6737 8.50289ZM20.6737 14.1433L19.9435 13.972L20.6737 14.1433ZM15.4971 19.3198L15.3258 18.5897L15.3258 18.5897L15.4971 19.3198ZM9.85671 19.3198L10.028 18.5897L9.85671 19.3198ZM9.85671 3.32634L9.68543 2.59616L9.85671 3.32634ZM15.4971 3.32634L15.6684 2.59615L15.4971 3.32634ZM5.36113 15.9135L6.01774 15.5511L5.78588 15.131L5.3073 15.1655L5.36113 15.9135ZM8.08646 18.6389L8.83452 18.6927L8.86896 18.2141L8.4489 17.9823L8.08646 18.6389ZM5.41033 13.972C5.00164 12.2297 5.00164 10.4165 5.41033 8.67416L3.94997 8.33161C3.48843 10.2992 3.48843 12.347 3.94997 14.3146L5.41033 13.972ZM19.9435 8.67417C20.3522 10.4165 20.3522 12.2297 19.9435 13.972L21.4038 14.3146C21.8654 12.347 21.8654 10.2992 21.4038 8.33161L19.9435 8.67417ZM15.3258 18.5897C13.5835 18.9984 11.7703 18.9984 10.028 18.5897L9.68543 20.05C11.653 20.5116 13.7008 20.5116 15.6684 20.05L15.3258 18.5897ZM10.028 4.05652C11.7703 3.64783 13.5835 3.64783 15.3258 4.05652L15.6684 2.59615C13.7008 2.13461 11.653 2.13462 9.68543 2.59616L10.028 4.05652ZM10.028 18.5897C7.73678 18.0522 5.94778 16.2632 5.41033 13.972L3.94997 14.3146C4.61752 17.1604 6.83958 19.3825 9.68543 20.05L10.028 18.5897ZM15.6684 20.05C18.5142 19.3825 20.7363 17.1604 21.4038 14.3146L19.9435 13.972C19.406 16.2632 17.617 18.0522 15.3258 18.5897L15.6684 20.05ZM15.3258 4.05652C17.617 4.59396 19.406 6.38296 19.9435 8.67417L21.4038 8.33161C20.7363 5.48577 18.5142 3.2637 15.6684 2.59615L15.3258 4.05652ZM9.68543 2.59616C6.83958 3.2637 4.61752 5.48576 3.94997 8.33161L5.41033 8.67416C5.94778 6.38295 7.73677 4.59396 10.028 4.05652L9.68543 2.59616ZM5.3073 15.1655C3.59798 15.2885 2.25 16.7132 2.25 18.4534H3.75C3.75 17.5056 4.48457 16.7286 5.41496 16.6616L5.3073 15.1655ZM2.25 18.4534C2.25 20.2741 3.72592 21.75 5.54655 21.75V20.25C4.55435 20.25 3.75 19.4457 3.75 18.4534H2.25ZM5.54655 21.75C7.2868 21.75 8.71153 20.402 8.83452 18.6927L7.33839 18.585C7.27144 19.5154 6.49445 20.25 5.54655 20.25V21.75ZM8.4489 17.9823C7.42615 17.4177 6.58229 16.5738 6.01774 15.5511L4.70452 16.276C5.40578 17.5464 6.4536 18.5942 7.72402 19.2955L8.4489 17.9823Z" fill="currentColor" />
  <path d="M9.35913 12.7802L11.0656 11.2444C11.4816 10.87 11.6895 10.6829 11.9255 10.7125C12.1615 10.7422 12.3167 10.975 12.6271 11.4406L13.3731 12.5595C13.6835 13.0251 13.8387 13.2579 14.0746 13.2875C14.3106 13.3172 14.5186 13.13 14.9345 12.7557L16.641 11.2198" stroke="currentColor" stroke-width="1.5" stroke-linecap="round" />
</svg>