<svg width="256" height="256" viewBox="0 0 256 256" fill="none" xmlns="http://www.w3.org/2000/svg">
  <path d="M33.4893 128.147C35.0497 124.68 38.2546 122.231 42.015 121.631L110.756 110.664C113.373 110.247 116.054 110.761 118.33 112.116L163.863 139.225C168.79 142.158 170.733 148.31 168.382 153.533L153.887 185.742C152.326 189.209 149.122 191.659 145.361 192.259L76.6199 203.226C74.0028 203.643 71.3219 203.129 69.0458 201.774L23.5132 174.665C18.5864 171.731 16.6432 165.58 18.9938 160.357L33.4893 128.147Z" fill="#023AAE" />
  <path d="M33.4893 128.147C35.0497 124.68 38.2546 122.231 42.015 121.631L110.756 110.664C113.373 110.247 116.054 110.761 118.33 112.116L163.863 139.225C168.79 142.158 170.733 148.31 168.382 153.533L153.887 185.742C152.326 189.209 149.122 191.659 145.361 192.259L76.6199 203.226C74.0028 203.643 71.3219 203.129 69.0458 201.774L23.5132 174.665C18.5864 171.731 16.6432 165.58 18.9938 160.357L33.4893 128.147Z" fill="url(#paint0_radial_551_1452)" />
  <path d="M67.8014 101.091C69.3617 97.5866 72.5666 95.1103 76.3271 94.5039L145.068 83.4182C147.685 82.9961 150.366 83.5154 152.642 84.8853L198.175 112.289C203.102 115.255 205.045 121.473 202.694 126.753L188.199 159.312C186.639 162.817 183.434 165.293 179.673 165.9L110.932 176.985C108.315 177.408 105.634 176.888 103.358 175.518L57.8252 148.114C52.8984 145.149 50.9553 138.93 53.3058 133.651L67.8014 101.091Z" fill="#0057FB" />
  <path d="M66.8953 101.091C68.4661 97.5866 71.6923 95.1103 75.4779 94.5039L144.677 83.4182C147.312 82.9961 150.011 83.5154 152.302 84.8853L198.138 112.289C203.098 115.255 205.054 121.473 202.688 126.753L188.095 159.312C186.525 162.817 183.298 165.293 179.513 165.9L110.313 176.985C107.679 177.408 104.98 176.888 102.689 175.518L56.8527 148.114C51.8931 145.149 49.9369 138.93 52.3031 133.651L66.8953 101.091Z" fill="url(#paint1_radial_551_1452)" />
  <path d="M102.113 70.8161C103.674 67.3114 106.879 64.8351 110.639 64.2286L179.38 53.143C181.997 52.7209 184.678 53.2402 186.954 54.6101L232.487 82.0141C237.414 84.9794 239.357 91.1982 237.006 96.4778L222.511 129.037C220.951 132.542 217.746 135.018 213.985 135.625L145.244 146.71C142.627 147.132 139.946 146.613 137.67 145.243L92.1372 117.839C87.2104 114.874 85.2673 108.655 87.6178 103.375L102.113 70.8161Z" fill="#D4E4FE" />
  <path d="M102.113 70.8161C103.674 67.3114 106.879 64.8351 110.639 64.2286L179.38 53.143C181.997 52.7209 184.678 53.2402 186.954 54.6101L232.487 82.0141C237.414 84.9794 239.357 91.1982 237.006 96.4778L222.511 129.037C220.951 132.542 217.746 135.018 213.985 135.625L145.244 146.71C142.627 147.132 139.946 146.613 137.67 145.243L92.1372 117.839C87.2104 114.874 85.2673 108.655 87.6178 103.375L102.113 70.8161Z" fill="url(#paint2_radial_551_1452)" />
  <defs>
    <radialGradient id="paint0_radial_551_1452" cx="0" cy="0" r="1" gradientUnits="userSpaceOnUse" gradientTransform="translate(142.957 300.687) rotate(-105.438) scale(275.965 334.486)">
      <stop stop-color="white" />
      <stop offset="1" stop-color="#023AAE" stop-opacity="0" />
    </radialGradient>
    <radialGradient id="paint1_radial_551_1452" cx="0" cy="0" r="1" gradientUnits="userSpaceOnUse" gradientTransform="translate(183.434 258.567) rotate(-108.129) scale(319.937 316.261)">
      <stop stop-color="white" />
      <stop offset="1" stop-color="#0057FB" stop-opacity="0" />
    </radialGradient>
    <radialGradient id="paint2_radial_551_1452" cx="0" cy="0" r="1" gradientUnits="userSpaceOnUse" gradientTransform="translate(241.13 212.119) rotate(-112.88) scale(312.488 1131.05)">
      <stop stop-color="white" />
      <stop offset="1" stop-color="#D4E4FE" stop-opacity="0" />
    </radialGradient>
  </defs>
</svg>
