<svg width="41" height="41" viewBox="0 0 41 41" fill="none" xmlns="http://www.w3.org/2000/svg">
  <path d="M0 18C0 8.05888 8.05888 0 18 0H23C32.9411 0 41 8.05888 41 18V23C41 32.9411 32.9411 41 23 41H18C8.05888 41 0 32.9411 0 23V18Z" fill="#313131" />
  <path d="M25.1672 28.3995L24.7926 27.7498L24.7926 27.7498L25.1672 28.3995ZM22.0812 29.886L21.9249 29.1525L22.0812 29.886ZM16.8328 28.3996L16.4581 29.0493L16.4581 29.0493L16.8328 28.3996ZM19.9188 29.886L20.0751 29.1525L19.9188 29.886ZM29.2855 24.2483L28.5644 24.042L28.5644 24.042L29.2855 24.2483ZM25.3328 28.3041L25.7074 28.9538L25.7074 28.9538L25.3328 28.3041ZM27.9894 26.5199L27.4462 26.0027L27.4462 26.0027L27.9894 26.5199ZM25.3328 13.6959L24.9581 14.3456L24.9581 14.3456L25.3328 13.6959ZM27.9894 15.4801L27.4462 15.9973L27.4462 15.9973L27.9894 15.4801ZM29.2855 17.7517L28.5644 17.958L29.2855 17.7517ZM16.8328 13.6004L17.2074 14.2502L17.2074 14.2502L16.8328 13.6004ZM19.9188 12.114L19.7625 11.3804L19.9188 12.114ZM25.1672 13.6005L25.5419 12.9507L25.5419 12.9507L25.1672 13.6005ZM22.0812 12.114L22.2375 11.3804L22.0812 12.114ZM12.5 21L11.75 21L12.5 21ZM12.7145 17.7517L13.4356 17.958L12.7145 17.7517ZM16.6672 13.6959L16.2926 13.0462L16.2926 13.0462L16.6672 13.6959ZM14.0106 15.4801L14.5538 15.9973L14.0106 15.4801ZM12.7145 24.2483L11.9935 24.4545L11.9935 24.4545L12.7145 24.2483ZM16.6672 28.3041L17.0419 27.6544L17.0419 27.6544L16.6672 28.3041ZM14.0106 26.5199L13.4674 27.0371L14.0106 26.5199ZM17.0419 14.3456L17.2074 14.2502L16.4581 12.9507L16.2926 13.0462L17.0419 14.3456ZM24.7926 14.2502L24.9581 14.3456L25.7074 13.0462L25.5419 12.9507L24.7926 14.2502ZM24.9581 27.6544L24.7926 27.7498L25.5419 29.0493L25.7074 28.9538L24.9581 27.6544ZM17.2074 27.7498L17.0419 27.6544L16.2926 28.9538L16.4581 29.0493L17.2074 27.7498ZM24.7926 27.7498C23.2287 28.6516 22.5875 29.0113 21.9249 29.1525L22.2375 30.6195C23.1867 30.4173 24.0656 29.9005 25.5419 29.0493L24.7926 27.7498ZM16.4581 29.0493C17.9344 29.9005 18.8133 30.4173 19.7625 30.6195L20.0751 29.1525C19.4125 29.0113 18.7713 28.6516 17.2074 27.7498L16.4581 29.0493ZM21.9249 29.1525C21.3148 29.2825 20.6852 29.2825 20.0751 29.1525L19.7625 30.6195C20.5787 30.7935 21.4213 30.7935 22.2375 30.6195L21.9249 29.1525ZM28.75 21C28.75 22.7102 28.7431 23.417 28.5644 24.042L30.0065 24.4545C30.2569 23.5791 30.25 22.6205 30.25 21H28.75ZM25.7074 28.9538C27.0839 28.1601 27.9075 27.6936 28.5326 27.0371L27.4462 26.0027C27.0059 26.4652 26.4136 26.8151 24.9581 27.6544L25.7074 28.9538ZM28.5644 24.042C28.353 24.7812 27.9685 25.4542 27.4462 26.0027L28.5326 27.0371C29.2237 26.3112 29.7292 25.4242 30.0065 24.4545L28.5644 24.042ZM24.9581 14.3456C26.4136 15.1849 27.0059 15.5348 27.4462 15.9973L28.5326 14.9629C27.9075 14.3064 27.0839 13.8399 25.7074 13.0462L24.9581 14.3456ZM30.25 21C30.25 19.3795 30.2569 18.4209 30.0065 17.5455L28.5644 17.958C28.7431 18.583 28.75 19.2898 28.75 21H30.25ZM27.4462 15.9973C27.9685 16.5458 28.353 17.2188 28.5644 17.958L30.0065 17.5455C29.7292 16.5758 29.2237 15.6888 28.5326 14.9629L27.4462 15.9973ZM17.2074 14.2502C18.7713 13.3484 19.4125 12.9887 20.0751 12.8475L19.7625 11.3804C18.8133 11.5827 17.9344 12.0995 16.4581 12.9507L17.2074 14.2502ZM25.5419 12.9507C24.0656 12.0995 23.1867 11.5827 22.2375 11.3804L21.9249 12.8475C22.5875 12.9887 23.2287 13.3484 24.7926 14.2502L25.5419 12.9507ZM20.0751 12.8475C20.6852 12.7175 21.3148 12.7175 21.9249 12.8475L22.2375 11.3804C21.4213 11.2065 20.5787 11.2065 19.7625 11.3804L20.0751 12.8475ZM13.25 21C13.25 19.2898 13.2569 18.583 13.4356 17.958L11.9935 17.5455C11.7431 18.4209 11.75 19.3795 11.75 21L13.25 21ZM16.2926 13.0462C14.9161 13.8399 14.0925 14.3064 13.4674 14.9629L14.5538 15.9973C14.9941 15.5348 15.5864 15.1849 17.0419 14.3456L16.2926 13.0462ZM13.4356 17.958C13.647 17.2188 14.0315 16.5458 14.5538 15.9973L13.4674 14.9629C12.7763 15.6888 12.2708 16.5758 11.9935 17.5455L13.4356 17.958ZM11.75 21C11.75 22.6205 11.7431 23.5791 11.9935 24.4545L13.4356 24.042C13.2569 23.417 13.25 22.7102 13.25 21L11.75 21ZM17.0419 27.6544C15.5864 26.8151 14.9941 26.4652 14.5538 26.0027L13.4674 27.0371C14.0925 27.6936 14.9161 28.1601 16.2926 28.9538L17.0419 27.6544ZM11.9935 24.4545C12.2708 25.4242 12.7763 26.3112 13.4674 27.0371L14.5538 26.0027C14.0315 25.4542 13.647 24.7812 13.4356 24.042L11.9935 24.4545Z" fill="#FCFBF4" />
  <path d="M18 18H22M18 24H21M18 21H24" stroke="#FCFBF4" stroke-width="1.5" stroke-linecap="round" />
</svg>